<mxfile host="app.diagrams.net" modified="2024-02-21T12:14:04.236Z" agent="Mozilla/5.0 (Macintosh; Intel Mac OS X 10_15_7) AppleWebKit/537.36 (KHTML, like Gecko) Chrome/121.0.0.0 Safari/537.36" etag="CzmQG6atuAZY6JH0lPPN" version="23.1.5" type="device">
  <diagram id="C5RBs43oDa-KdzZeNtuy" name="Page-1">
    <mxGraphModel dx="2653" dy="1949" grid="1" gridSize="10" guides="1" tooltips="1" connect="1" arrows="1" fold="1" page="1" pageScale="1" pageWidth="827" pageHeight="1169" math="0" shadow="0">
      <root>
        <mxCell id="WIyWlLk6GJQsqaUBKTNV-0" />
        <mxCell id="WIyWlLk6GJQsqaUBKTNV-1" parent="WIyWlLk6GJQsqaUBKTNV-0" />
        <mxCell id="6bCr9Sbg1nDe6eWZvjVP-2" style="edgeStyle=orthogonalEdgeStyle;rounded=0;orthogonalLoop=1;jettySize=auto;html=1;exitX=0.5;exitY=1;exitDx=0;exitDy=0;endArrow=none;endFill=0;" edge="1" parent="WIyWlLk6GJQsqaUBKTNV-1" source="6bCr9Sbg1nDe6eWZvjVP-1" target="6bCr9Sbg1nDe6eWZvjVP-3">
          <mxGeometry relative="1" as="geometry">
            <mxPoint x="219.8461538461538" y="200" as="targetPoint" />
          </mxGeometry>
        </mxCell>
        <mxCell id="6bCr9Sbg1nDe6eWZvjVP-1" value="geti" style="shape=process;whiteSpace=wrap;html=1;backgroundOutline=1;" vertex="1" parent="WIyWlLk6GJQsqaUBKTNV-1">
          <mxGeometry x="160" y="80" width="120" height="40" as="geometry" />
        </mxCell>
        <mxCell id="6bCr9Sbg1nDe6eWZvjVP-4" style="edgeStyle=orthogonalEdgeStyle;rounded=0;orthogonalLoop=1;jettySize=auto;html=1;exitX=0.504;exitY=0.843;exitDx=0;exitDy=0;exitPerimeter=0;endArrow=none;endFill=0;" edge="1" parent="WIyWlLk6GJQsqaUBKTNV-1" source="6bCr9Sbg1nDe6eWZvjVP-3">
          <mxGeometry relative="1" as="geometry">
            <mxPoint x="220" y="260" as="targetPoint" />
          </mxGeometry>
        </mxCell>
        <mxCell id="6bCr9Sbg1nDe6eWZvjVP-3" value="ebx" style="shape=document;whiteSpace=wrap;html=1;boundedLbl=1;" vertex="1" parent="WIyWlLk6GJQsqaUBKTNV-1">
          <mxGeometry x="160" y="160" width="120" height="60" as="geometry" />
        </mxCell>
        <mxCell id="6bCr9Sbg1nDe6eWZvjVP-6" style="edgeStyle=orthogonalEdgeStyle;rounded=0;orthogonalLoop=1;jettySize=auto;html=1;endArrow=none;endFill=0;" edge="1" parent="WIyWlLk6GJQsqaUBKTNV-1" source="6bCr9Sbg1nDe6eWZvjVP-5">
          <mxGeometry relative="1" as="geometry">
            <mxPoint x="220" y="360" as="targetPoint" />
          </mxGeometry>
        </mxCell>
        <mxCell id="6bCr9Sbg1nDe6eWZvjVP-5" value="edx" style="shape=card;whiteSpace=wrap;html=1;size=20;" vertex="1" parent="WIyWlLk6GJQsqaUBKTNV-1">
          <mxGeometry x="160" y="260" width="120" height="50" as="geometry" />
        </mxCell>
        <mxCell id="6bCr9Sbg1nDe6eWZvjVP-8" style="edgeStyle=orthogonalEdgeStyle;rounded=0;orthogonalLoop=1;jettySize=auto;html=1;endArrow=none;endFill=0;" edge="1" parent="WIyWlLk6GJQsqaUBKTNV-1" source="6bCr9Sbg1nDe6eWZvjVP-7">
          <mxGeometry relative="1" as="geometry">
            <mxPoint x="220" y="470" as="targetPoint" />
          </mxGeometry>
        </mxCell>
        <mxCell id="6bCr9Sbg1nDe6eWZvjVP-7" value="stoi" style="rounded=0;whiteSpace=wrap;html=1;" vertex="1" parent="WIyWlLk6GJQsqaUBKTNV-1">
          <mxGeometry x="160" y="360" width="120" height="60" as="geometry" />
        </mxCell>
        <mxCell id="6bCr9Sbg1nDe6eWZvjVP-9" value="mov dword[ebx], eax" style="rounded=0;whiteSpace=wrap;html=1;" vertex="1" parent="WIyWlLk6GJQsqaUBKTNV-1">
          <mxGeometry x="160" y="470" width="120" height="50" as="geometry" />
        </mxCell>
        <mxCell id="6bCr9Sbg1nDe6eWZvjVP-10" value="" style="endArrow=none;html=1;rounded=0;" edge="1" parent="WIyWlLk6GJQsqaUBKTNV-1">
          <mxGeometry width="50" height="50" relative="1" as="geometry">
            <mxPoint x="220" y="560" as="sourcePoint" />
            <mxPoint x="220" y="520" as="targetPoint" />
          </mxGeometry>
        </mxCell>
        <mxCell id="6bCr9Sbg1nDe6eWZvjVP-11" value="ret" style="rounded=1;whiteSpace=wrap;html=1;arcSize=50;" vertex="1" parent="WIyWlLk6GJQsqaUBKTNV-1">
          <mxGeometry x="160" y="560" width="120" height="60" as="geometry" />
        </mxCell>
        <mxCell id="6bCr9Sbg1nDe6eWZvjVP-14" style="edgeStyle=orthogonalEdgeStyle;rounded=0;orthogonalLoop=1;jettySize=auto;html=1;endArrow=none;endFill=0;" edge="1" parent="WIyWlLk6GJQsqaUBKTNV-1" source="6bCr9Sbg1nDe6eWZvjVP-13" target="6bCr9Sbg1nDe6eWZvjVP-15">
          <mxGeometry relative="1" as="geometry">
            <mxPoint x="500" y="160" as="targetPoint" />
          </mxGeometry>
        </mxCell>
        <mxCell id="6bCr9Sbg1nDe6eWZvjVP-13" value="stoi" style="shape=process;whiteSpace=wrap;html=1;backgroundOutline=1;" vertex="1" parent="WIyWlLk6GJQsqaUBKTNV-1">
          <mxGeometry x="440" y="80" width="120" height="40" as="geometry" />
        </mxCell>
        <mxCell id="6bCr9Sbg1nDe6eWZvjVP-15" value="mov dl, [esi]" style="rounded=0;whiteSpace=wrap;html=1;" vertex="1" parent="WIyWlLk6GJQsqaUBKTNV-1">
          <mxGeometry x="440" y="160" width="120" height="40" as="geometry" />
        </mxCell>
        <mxCell id="6bCr9Sbg1nDe6eWZvjVP-16" value="" style="endArrow=none;html=1;rounded=0;" edge="1" parent="WIyWlLk6GJQsqaUBKTNV-1">
          <mxGeometry width="50" height="50" relative="1" as="geometry">
            <mxPoint x="500" y="240" as="sourcePoint" />
            <mxPoint x="500" y="200" as="targetPoint" />
          </mxGeometry>
        </mxCell>
        <mxCell id="6bCr9Sbg1nDe6eWZvjVP-17" value="dl == &#39;-&#39;" style="rhombus;whiteSpace=wrap;html=1;" vertex="1" parent="WIyWlLk6GJQsqaUBKTNV-1">
          <mxGeometry x="450" y="240" width="100" height="60" as="geometry" />
        </mxCell>
        <mxCell id="6bCr9Sbg1nDe6eWZvjVP-18" value="" style="endArrow=none;html=1;rounded=0;" edge="1" parent="WIyWlLk6GJQsqaUBKTNV-1">
          <mxGeometry width="50" height="50" relative="1" as="geometry">
            <mxPoint x="599.74" y="300" as="sourcePoint" />
            <mxPoint x="600" y="270" as="targetPoint" />
          </mxGeometry>
        </mxCell>
        <mxCell id="6bCr9Sbg1nDe6eWZvjVP-19" value="Yes" style="text;html=1;align=center;verticalAlign=middle;whiteSpace=wrap;rounded=0;" vertex="1" parent="WIyWlLk6GJQsqaUBKTNV-1">
          <mxGeometry x="550" y="245" width="40" height="20" as="geometry" />
        </mxCell>
        <mxCell id="6bCr9Sbg1nDe6eWZvjVP-20" value="esi ++&lt;br&gt;push 1" style="rounded=0;whiteSpace=wrap;html=1;" vertex="1" parent="WIyWlLk6GJQsqaUBKTNV-1">
          <mxGeometry x="550" y="300" width="100" height="50" as="geometry" />
        </mxCell>
        <mxCell id="6bCr9Sbg1nDe6eWZvjVP-21" value="" style="endArrow=none;html=1;rounded=0;" edge="1" parent="WIyWlLk6GJQsqaUBKTNV-1">
          <mxGeometry width="50" height="50" relative="1" as="geometry">
            <mxPoint x="600" y="380" as="sourcePoint" />
            <mxPoint x="599.74" y="350" as="targetPoint" />
          </mxGeometry>
        </mxCell>
        <mxCell id="6bCr9Sbg1nDe6eWZvjVP-22" value="" style="endArrow=none;html=1;rounded=0;" edge="1" parent="WIyWlLk6GJQsqaUBKTNV-1">
          <mxGeometry width="50" height="50" relative="1" as="geometry">
            <mxPoint x="400" y="270" as="sourcePoint" />
            <mxPoint x="450" y="270" as="targetPoint" />
          </mxGeometry>
        </mxCell>
        <mxCell id="6bCr9Sbg1nDe6eWZvjVP-23" value="" style="endArrow=none;html=1;rounded=0;" edge="1" parent="WIyWlLk6GJQsqaUBKTNV-1">
          <mxGeometry width="50" height="50" relative="1" as="geometry">
            <mxPoint x="400" y="380" as="sourcePoint" />
            <mxPoint x="400" y="270" as="targetPoint" />
          </mxGeometry>
        </mxCell>
        <mxCell id="6bCr9Sbg1nDe6eWZvjVP-24" value="" style="endArrow=none;html=1;rounded=0;startArrow=none;startFill=0;endFill=0;" edge="1" parent="WIyWlLk6GJQsqaUBKTNV-1">
          <mxGeometry width="50" height="50" relative="1" as="geometry">
            <mxPoint x="400" y="380" as="sourcePoint" />
            <mxPoint x="500" y="380" as="targetPoint" />
          </mxGeometry>
        </mxCell>
        <mxCell id="6bCr9Sbg1nDe6eWZvjVP-25" value="No" style="text;html=1;align=center;verticalAlign=middle;whiteSpace=wrap;rounded=0;shadow=1;" vertex="1" parent="WIyWlLk6GJQsqaUBKTNV-1">
          <mxGeometry x="414" y="250" width="30" height="10" as="geometry" />
        </mxCell>
        <mxCell id="6bCr9Sbg1nDe6eWZvjVP-26" value="" style="endArrow=none;html=1;rounded=0;exitX=1;exitY=0.5;exitDx=0;exitDy=0;" edge="1" parent="WIyWlLk6GJQsqaUBKTNV-1" source="6bCr9Sbg1nDe6eWZvjVP-17">
          <mxGeometry width="50" height="50" relative="1" as="geometry">
            <mxPoint x="450" y="330" as="sourcePoint" />
            <mxPoint x="600" y="270" as="targetPoint" />
          </mxGeometry>
        </mxCell>
        <mxCell id="6bCr9Sbg1nDe6eWZvjVP-27" value="" style="endArrow=none;html=1;rounded=0;" edge="1" parent="WIyWlLk6GJQsqaUBKTNV-1">
          <mxGeometry width="50" height="50" relative="1" as="geometry">
            <mxPoint x="500" y="380" as="sourcePoint" />
            <mxPoint x="600" y="380" as="targetPoint" />
          </mxGeometry>
        </mxCell>
        <mxCell id="6bCr9Sbg1nDe6eWZvjVP-28" value="" style="endArrow=none;html=1;rounded=0;" edge="1" parent="WIyWlLk6GJQsqaUBKTNV-1">
          <mxGeometry width="50" height="50" relative="1" as="geometry">
            <mxPoint x="499.74" y="430" as="sourcePoint" />
            <mxPoint x="499.74" y="380" as="targetPoint" />
          </mxGeometry>
        </mxCell>
        <mxCell id="6bCr9Sbg1nDe6eWZvjVP-31" value="mov dl, [esi]&lt;br&gt;esi++" style="rounded=0;whiteSpace=wrap;html=1;" vertex="1" parent="WIyWlLk6GJQsqaUBKTNV-1">
          <mxGeometry x="440" y="430" width="120" height="50" as="geometry" />
        </mxCell>
        <mxCell id="6bCr9Sbg1nDe6eWZvjVP-52" style="edgeStyle=orthogonalEdgeStyle;rounded=0;orthogonalLoop=1;jettySize=auto;html=1;endArrow=none;endFill=0;" edge="1" parent="WIyWlLk6GJQsqaUBKTNV-1" source="6bCr9Sbg1nDe6eWZvjVP-32">
          <mxGeometry relative="1" as="geometry">
            <mxPoint x="660" y="1000" as="targetPoint" />
          </mxGeometry>
        </mxCell>
        <mxCell id="6bCr9Sbg1nDe6eWZvjVP-32" value="dl == LF" style="rhombus;whiteSpace=wrap;html=1;" vertex="1" parent="WIyWlLk6GJQsqaUBKTNV-1">
          <mxGeometry x="450" y="520" width="100" height="60" as="geometry" />
        </mxCell>
        <mxCell id="6bCr9Sbg1nDe6eWZvjVP-34" value="" style="endArrow=none;html=1;rounded=0;exitX=0.5;exitY=0;exitDx=0;exitDy=0;" edge="1" parent="WIyWlLk6GJQsqaUBKTNV-1" source="6bCr9Sbg1nDe6eWZvjVP-32">
          <mxGeometry width="50" height="50" relative="1" as="geometry">
            <mxPoint x="450" y="530" as="sourcePoint" />
            <mxPoint x="500" y="480" as="targetPoint" />
          </mxGeometry>
        </mxCell>
        <mxCell id="6bCr9Sbg1nDe6eWZvjVP-35" value="" style="endArrow=none;html=1;rounded=0;entryX=0.5;entryY=1;entryDx=0;entryDy=0;" edge="1" parent="WIyWlLk6GJQsqaUBKTNV-1" target="6bCr9Sbg1nDe6eWZvjVP-32">
          <mxGeometry width="50" height="50" relative="1" as="geometry">
            <mxPoint x="500" y="630" as="sourcePoint" />
            <mxPoint x="500" y="580" as="targetPoint" />
          </mxGeometry>
        </mxCell>
        <mxCell id="6bCr9Sbg1nDe6eWZvjVP-36" value="ctoi" style="rounded=0;whiteSpace=wrap;html=1;" vertex="1" parent="WIyWlLk6GJQsqaUBKTNV-1">
          <mxGeometry x="440" y="630" width="120" height="50" as="geometry" />
        </mxCell>
        <mxCell id="6bCr9Sbg1nDe6eWZvjVP-37" value="" style="endArrow=none;html=1;rounded=0;" edge="1" parent="WIyWlLk6GJQsqaUBKTNV-1">
          <mxGeometry width="50" height="50" relative="1" as="geometry">
            <mxPoint x="500" y="720" as="sourcePoint" />
            <mxPoint x="500" y="680" as="targetPoint" />
          </mxGeometry>
        </mxCell>
        <mxCell id="6bCr9Sbg1nDe6eWZvjVP-38" value="eax = eax*10 + edx" style="rounded=0;whiteSpace=wrap;html=1;" vertex="1" parent="WIyWlLk6GJQsqaUBKTNV-1">
          <mxGeometry x="440" y="720" width="120" height="40" as="geometry" />
        </mxCell>
        <mxCell id="6bCr9Sbg1nDe6eWZvjVP-39" value="" style="endArrow=none;html=1;rounded=0;" edge="1" parent="WIyWlLk6GJQsqaUBKTNV-1">
          <mxGeometry width="50" height="50" relative="1" as="geometry">
            <mxPoint x="500" y="800" as="sourcePoint" />
            <mxPoint x="500" y="760" as="targetPoint" />
          </mxGeometry>
        </mxCell>
        <mxCell id="6bCr9Sbg1nDe6eWZvjVP-40" value="ecx -= 1" style="rounded=0;whiteSpace=wrap;html=1;" vertex="1" parent="WIyWlLk6GJQsqaUBKTNV-1">
          <mxGeometry x="440" y="800" width="120" height="40" as="geometry" />
        </mxCell>
        <mxCell id="6bCr9Sbg1nDe6eWZvjVP-44" style="edgeStyle=orthogonalEdgeStyle;rounded=0;orthogonalLoop=1;jettySize=auto;html=1;endArrow=none;endFill=0;" edge="1" parent="WIyWlLk6GJQsqaUBKTNV-1" source="6bCr9Sbg1nDe6eWZvjVP-41">
          <mxGeometry relative="1" as="geometry">
            <mxPoint x="360" y="410" as="targetPoint" />
          </mxGeometry>
        </mxCell>
        <mxCell id="6bCr9Sbg1nDe6eWZvjVP-41" value="ecx == 0" style="rhombus;whiteSpace=wrap;html=1;" vertex="1" parent="WIyWlLk6GJQsqaUBKTNV-1">
          <mxGeometry x="450" y="880" width="100" height="60" as="geometry" />
        </mxCell>
        <mxCell id="6bCr9Sbg1nDe6eWZvjVP-42" value="" style="endArrow=none;html=1;rounded=0;exitX=0.5;exitY=0;exitDx=0;exitDy=0;" edge="1" parent="WIyWlLk6GJQsqaUBKTNV-1" source="6bCr9Sbg1nDe6eWZvjVP-41">
          <mxGeometry width="50" height="50" relative="1" as="geometry">
            <mxPoint x="450" y="890" as="sourcePoint" />
            <mxPoint x="500" y="840" as="targetPoint" />
          </mxGeometry>
        </mxCell>
        <mxCell id="6bCr9Sbg1nDe6eWZvjVP-45" value="" style="endArrow=classic;html=1;rounded=0;endFill=1;" edge="1" parent="WIyWlLk6GJQsqaUBKTNV-1">
          <mxGeometry width="50" height="50" relative="1" as="geometry">
            <mxPoint x="360" y="410" as="sourcePoint" />
            <mxPoint x="499" y="410" as="targetPoint" />
          </mxGeometry>
        </mxCell>
        <mxCell id="6bCr9Sbg1nDe6eWZvjVP-46" value="No" style="text;html=1;align=center;verticalAlign=middle;whiteSpace=wrap;rounded=0;shadow=1;" vertex="1" parent="WIyWlLk6GJQsqaUBKTNV-1">
          <mxGeometry x="414" y="890" width="30" height="10" as="geometry" />
        </mxCell>
        <mxCell id="6bCr9Sbg1nDe6eWZvjVP-47" value="Yes" style="text;html=1;align=center;verticalAlign=middle;whiteSpace=wrap;rounded=0;" vertex="1" parent="WIyWlLk6GJQsqaUBKTNV-1">
          <mxGeometry x="550" y="530" width="40" height="20" as="geometry" />
        </mxCell>
        <mxCell id="6bCr9Sbg1nDe6eWZvjVP-49" value="No" style="text;html=1;align=center;verticalAlign=middle;whiteSpace=wrap;rounded=0;shadow=1;" vertex="1" parent="WIyWlLk6GJQsqaUBKTNV-1">
          <mxGeometry x="500" y="585" width="30" height="10" as="geometry" />
        </mxCell>
        <mxCell id="6bCr9Sbg1nDe6eWZvjVP-50" value="Yes" style="text;html=1;align=center;verticalAlign=middle;whiteSpace=wrap;rounded=0;" vertex="1" parent="WIyWlLk6GJQsqaUBKTNV-1">
          <mxGeometry x="500" y="940" width="40" height="20" as="geometry" />
        </mxCell>
        <mxCell id="6bCr9Sbg1nDe6eWZvjVP-53" value="" style="endArrow=none;html=1;rounded=0;endFill=0;" edge="1" parent="WIyWlLk6GJQsqaUBKTNV-1">
          <mxGeometry width="50" height="50" relative="1" as="geometry">
            <mxPoint x="500" y="940" as="sourcePoint" />
            <mxPoint x="500" y="1040" as="targetPoint" />
          </mxGeometry>
        </mxCell>
        <mxCell id="6bCr9Sbg1nDe6eWZvjVP-54" value="" style="endArrow=none;html=1;rounded=0;startArrow=classic;startFill=1;" edge="1" parent="WIyWlLk6GJQsqaUBKTNV-1">
          <mxGeometry width="50" height="50" relative="1" as="geometry">
            <mxPoint x="500" y="1000" as="sourcePoint" />
            <mxPoint x="660" y="1000" as="targetPoint" />
          </mxGeometry>
        </mxCell>
        <mxCell id="6bCr9Sbg1nDe6eWZvjVP-57" style="edgeStyle=orthogonalEdgeStyle;rounded=0;orthogonalLoop=1;jettySize=auto;html=1;exitX=1;exitY=0.5;exitDx=0;exitDy=0;endArrow=none;endFill=0;" edge="1" parent="WIyWlLk6GJQsqaUBKTNV-1" source="6bCr9Sbg1nDe6eWZvjVP-56">
          <mxGeometry relative="1" as="geometry">
            <mxPoint x="600" y="1120" as="targetPoint" />
          </mxGeometry>
        </mxCell>
        <mxCell id="6bCr9Sbg1nDe6eWZvjVP-59" style="edgeStyle=orthogonalEdgeStyle;rounded=0;orthogonalLoop=1;jettySize=auto;html=1;exitX=0;exitY=0.5;exitDx=0;exitDy=0;endArrow=none;endFill=0;" edge="1" parent="WIyWlLk6GJQsqaUBKTNV-1" source="6bCr9Sbg1nDe6eWZvjVP-56">
          <mxGeometry relative="1" as="geometry">
            <mxPoint x="430" y="1240" as="targetPoint" />
            <Array as="points">
              <mxPoint x="400" y="1070" />
              <mxPoint x="400" y="1240" />
            </Array>
          </mxGeometry>
        </mxCell>
        <mxCell id="6bCr9Sbg1nDe6eWZvjVP-56" value="pop == 1" style="rhombus;whiteSpace=wrap;html=1;" vertex="1" parent="WIyWlLk6GJQsqaUBKTNV-1">
          <mxGeometry x="450" y="1040" width="100" height="60" as="geometry" />
        </mxCell>
        <mxCell id="6bCr9Sbg1nDe6eWZvjVP-58" value="neg eax" style="rounded=0;whiteSpace=wrap;html=1;" vertex="1" parent="WIyWlLk6GJQsqaUBKTNV-1">
          <mxGeometry x="540" y="1120" width="120" height="60" as="geometry" />
        </mxCell>
        <mxCell id="6bCr9Sbg1nDe6eWZvjVP-60" value="" style="endArrow=none;html=1;rounded=0;exitX=0.5;exitY=1;exitDx=0;exitDy=0;" edge="1" parent="WIyWlLk6GJQsqaUBKTNV-1" source="6bCr9Sbg1nDe6eWZvjVP-58">
          <mxGeometry width="50" height="50" relative="1" as="geometry">
            <mxPoint x="480" y="1110" as="sourcePoint" />
            <mxPoint x="600" y="1240" as="targetPoint" />
          </mxGeometry>
        </mxCell>
        <mxCell id="6bCr9Sbg1nDe6eWZvjVP-61" value="" style="endArrow=none;html=1;rounded=0;" edge="1" parent="WIyWlLk6GJQsqaUBKTNV-1">
          <mxGeometry width="50" height="50" relative="1" as="geometry">
            <mxPoint x="400" y="1240" as="sourcePoint" />
            <mxPoint x="600" y="1240" as="targetPoint" />
          </mxGeometry>
        </mxCell>
        <mxCell id="6bCr9Sbg1nDe6eWZvjVP-62" value="Yes" style="text;html=1;align=center;verticalAlign=middle;whiteSpace=wrap;rounded=0;" vertex="1" parent="WIyWlLk6GJQsqaUBKTNV-1">
          <mxGeometry x="550" y="1050" width="40" height="20" as="geometry" />
        </mxCell>
        <mxCell id="6bCr9Sbg1nDe6eWZvjVP-64" value="No" style="text;html=1;align=center;verticalAlign=middle;whiteSpace=wrap;rounded=0;shadow=1;" vertex="1" parent="WIyWlLk6GJQsqaUBKTNV-1">
          <mxGeometry x="420" y="1050" width="30" height="10" as="geometry" />
        </mxCell>
        <mxCell id="6bCr9Sbg1nDe6eWZvjVP-65" value="" style="endArrow=none;html=1;rounded=0;endFill=0;" edge="1" parent="WIyWlLk6GJQsqaUBKTNV-1">
          <mxGeometry width="50" height="50" relative="1" as="geometry">
            <mxPoint x="500" y="1240" as="sourcePoint" />
            <mxPoint x="500" y="1310" as="targetPoint" />
          </mxGeometry>
        </mxCell>
        <mxCell id="6bCr9Sbg1nDe6eWZvjVP-66" value="ret" style="rounded=1;whiteSpace=wrap;html=1;arcSize=50;" vertex="1" parent="WIyWlLk6GJQsqaUBKTNV-1">
          <mxGeometry x="440" y="1310" width="120" height="60" as="geometry" />
        </mxCell>
        <mxCell id="6bCr9Sbg1nDe6eWZvjVP-68" style="edgeStyle=orthogonalEdgeStyle;rounded=0;orthogonalLoop=1;jettySize=auto;html=1;endArrow=none;endFill=0;" edge="1" parent="WIyWlLk6GJQsqaUBKTNV-1" source="6bCr9Sbg1nDe6eWZvjVP-67">
          <mxGeometry relative="1" as="geometry">
            <mxPoint x="800" y="160" as="targetPoint" />
          </mxGeometry>
        </mxCell>
        <mxCell id="6bCr9Sbg1nDe6eWZvjVP-67" value="сtoi" style="shape=process;whiteSpace=wrap;html=1;backgroundOutline=1;" vertex="1" parent="WIyWlLk6GJQsqaUBKTNV-1">
          <mxGeometry x="740" y="80" width="120" height="40" as="geometry" />
        </mxCell>
        <mxCell id="6bCr9Sbg1nDe6eWZvjVP-74" style="edgeStyle=orthogonalEdgeStyle;rounded=0;orthogonalLoop=1;jettySize=auto;html=1;endArrow=none;endFill=0;" edge="1" parent="WIyWlLk6GJQsqaUBKTNV-1" source="6bCr9Sbg1nDe6eWZvjVP-69">
          <mxGeometry relative="1" as="geometry">
            <mxPoint x="800" y="350" as="targetPoint" />
          </mxGeometry>
        </mxCell>
        <mxCell id="6bCr9Sbg1nDe6eWZvjVP-78" style="edgeStyle=orthogonalEdgeStyle;rounded=0;orthogonalLoop=1;jettySize=auto;html=1;endArrow=none;endFill=0;" edge="1" parent="WIyWlLk6GJQsqaUBKTNV-1" source="6bCr9Sbg1nDe6eWZvjVP-69">
          <mxGeometry relative="1" as="geometry">
            <mxPoint x="880" y="440" as="targetPoint" />
          </mxGeometry>
        </mxCell>
        <mxCell id="6bCr9Sbg1nDe6eWZvjVP-69" value="dl &amp;gt; &#39;9&#39;" style="rhombus;whiteSpace=wrap;html=1;" vertex="1" parent="WIyWlLk6GJQsqaUBKTNV-1">
          <mxGeometry x="750" y="250" width="100" height="60" as="geometry" />
        </mxCell>
        <mxCell id="6bCr9Sbg1nDe6eWZvjVP-72" style="edgeStyle=orthogonalEdgeStyle;rounded=0;orthogonalLoop=1;jettySize=auto;html=1;endArrow=none;endFill=0;" edge="1" parent="WIyWlLk6GJQsqaUBKTNV-1" source="6bCr9Sbg1nDe6eWZvjVP-70">
          <mxGeometry relative="1" as="geometry">
            <mxPoint x="800" y="250" as="targetPoint" />
          </mxGeometry>
        </mxCell>
        <mxCell id="6bCr9Sbg1nDe6eWZvjVP-70" value="dl &amp;lt; &#39;0&#39;" style="rhombus;whiteSpace=wrap;html=1;" vertex="1" parent="WIyWlLk6GJQsqaUBKTNV-1">
          <mxGeometry x="750" y="160" width="100" height="60" as="geometry" />
        </mxCell>
        <mxCell id="6bCr9Sbg1nDe6eWZvjVP-73" value="Yes" style="text;html=1;align=center;verticalAlign=middle;whiteSpace=wrap;rounded=0;" vertex="1" parent="WIyWlLk6GJQsqaUBKTNV-1">
          <mxGeometry x="800" y="220" width="40" height="20" as="geometry" />
        </mxCell>
        <mxCell id="6bCr9Sbg1nDe6eWZvjVP-75" value="Yes" style="text;html=1;align=center;verticalAlign=middle;whiteSpace=wrap;rounded=0;" vertex="1" parent="WIyWlLk6GJQsqaUBKTNV-1">
          <mxGeometry x="800" y="315" width="40" height="20" as="geometry" />
        </mxCell>
        <mxCell id="6bCr9Sbg1nDe6eWZvjVP-77" style="edgeStyle=orthogonalEdgeStyle;rounded=0;orthogonalLoop=1;jettySize=auto;html=1;endArrow=none;endFill=0;" edge="1" parent="WIyWlLk6GJQsqaUBKTNV-1" source="6bCr9Sbg1nDe6eWZvjVP-76">
          <mxGeometry relative="1" as="geometry">
            <mxPoint x="800" y="480" as="targetPoint" />
          </mxGeometry>
        </mxCell>
        <mxCell id="6bCr9Sbg1nDe6eWZvjVP-76" value="dl -= &#39;0&#39;" style="rounded=0;whiteSpace=wrap;html=1;" vertex="1" parent="WIyWlLk6GJQsqaUBKTNV-1">
          <mxGeometry x="750" y="350" width="100" height="50" as="geometry" />
        </mxCell>
        <mxCell id="6bCr9Sbg1nDe6eWZvjVP-79" value="" style="endArrow=none;html=1;rounded=0;startArrow=classic;startFill=1;" edge="1" parent="WIyWlLk6GJQsqaUBKTNV-1">
          <mxGeometry width="50" height="50" relative="1" as="geometry">
            <mxPoint x="800" y="440" as="sourcePoint" />
            <mxPoint x="880" y="440" as="targetPoint" />
          </mxGeometry>
        </mxCell>
        <mxCell id="6bCr9Sbg1nDe6eWZvjVP-81" style="edgeStyle=orthogonalEdgeStyle;rounded=0;orthogonalLoop=1;jettySize=auto;html=1;endArrow=classic;endFill=1;startArrow=none;startFill=0;" edge="1" parent="WIyWlLk6GJQsqaUBKTNV-1">
          <mxGeometry relative="1" as="geometry">
            <mxPoint x="800" y="460" as="targetPoint" />
            <mxPoint x="850" y="190" as="sourcePoint" />
            <Array as="points">
              <mxPoint x="850" y="191" />
              <mxPoint x="920" y="191" />
              <mxPoint x="920" y="460" />
            </Array>
          </mxGeometry>
        </mxCell>
        <mxCell id="6bCr9Sbg1nDe6eWZvjVP-82" value="No" style="text;html=1;align=center;verticalAlign=middle;whiteSpace=wrap;rounded=0;shadow=1;" vertex="1" parent="WIyWlLk6GJQsqaUBKTNV-1">
          <mxGeometry x="850" y="175" width="30" height="10" as="geometry" />
        </mxCell>
        <mxCell id="6bCr9Sbg1nDe6eWZvjVP-83" value="No" style="text;html=1;align=center;verticalAlign=middle;whiteSpace=wrap;rounded=0;shadow=1;" vertex="1" parent="WIyWlLk6GJQsqaUBKTNV-1">
          <mxGeometry x="850" y="265" width="30" height="10" as="geometry" />
        </mxCell>
        <mxCell id="6bCr9Sbg1nDe6eWZvjVP-84" value="ret" style="rounded=1;whiteSpace=wrap;html=1;arcSize=50;" vertex="1" parent="WIyWlLk6GJQsqaUBKTNV-1">
          <mxGeometry x="740" y="480" width="120" height="60" as="geometry" />
        </mxCell>
        <mxCell id="6bCr9Sbg1nDe6eWZvjVP-85" style="edgeStyle=orthogonalEdgeStyle;rounded=0;orthogonalLoop=1;jettySize=auto;html=1;exitX=0.5;exitY=1;exitDx=0;exitDy=0;endArrow=none;endFill=0;" edge="1" parent="WIyWlLk6GJQsqaUBKTNV-1" source="6bCr9Sbg1nDe6eWZvjVP-86" target="6bCr9Sbg1nDe6eWZvjVP-88">
          <mxGeometry relative="1" as="geometry">
            <mxPoint x="1019.8461538461538" y="200" as="targetPoint" />
          </mxGeometry>
        </mxCell>
        <mxCell id="6bCr9Sbg1nDe6eWZvjVP-86" value="outi" style="shape=process;whiteSpace=wrap;html=1;backgroundOutline=1;" vertex="1" parent="WIyWlLk6GJQsqaUBKTNV-1">
          <mxGeometry x="960" y="80" width="120" height="40" as="geometry" />
        </mxCell>
        <mxCell id="6bCr9Sbg1nDe6eWZvjVP-87" style="edgeStyle=orthogonalEdgeStyle;rounded=0;orthogonalLoop=1;jettySize=auto;html=1;exitX=0.504;exitY=0.843;exitDx=0;exitDy=0;exitPerimeter=0;endArrow=none;endFill=0;" edge="1" parent="WIyWlLk6GJQsqaUBKTNV-1" source="6bCr9Sbg1nDe6eWZvjVP-88">
          <mxGeometry relative="1" as="geometry">
            <mxPoint x="1020" y="260" as="targetPoint" />
          </mxGeometry>
        </mxCell>
        <mxCell id="6bCr9Sbg1nDe6eWZvjVP-88" value="ecx" style="shape=document;whiteSpace=wrap;html=1;boundedLbl=1;" vertex="1" parent="WIyWlLk6GJQsqaUBKTNV-1">
          <mxGeometry x="960" y="160" width="120" height="60" as="geometry" />
        </mxCell>
        <mxCell id="6bCr9Sbg1nDe6eWZvjVP-91" style="edgeStyle=orthogonalEdgeStyle;rounded=0;orthogonalLoop=1;jettySize=auto;html=1;endArrow=none;endFill=0;" edge="1" parent="WIyWlLk6GJQsqaUBKTNV-1" source="6bCr9Sbg1nDe6eWZvjVP-95">
          <mxGeometry relative="1" as="geometry">
            <mxPoint x="1020" y="470" as="targetPoint" />
            <Array as="points">
              <mxPoint x="1020" y="480" />
              <mxPoint x="1020" y="480" />
            </Array>
          </mxGeometry>
        </mxCell>
        <mxCell id="6bCr9Sbg1nDe6eWZvjVP-92" value="itos" style="rounded=0;whiteSpace=wrap;html=1;" vertex="1" parent="WIyWlLk6GJQsqaUBKTNV-1">
          <mxGeometry x="960" y="260" width="120" height="60" as="geometry" />
        </mxCell>
        <mxCell id="6bCr9Sbg1nDe6eWZvjVP-96" style="edgeStyle=orthogonalEdgeStyle;rounded=0;orthogonalLoop=1;jettySize=auto;html=1;endArrow=none;endFill=0;" edge="1" parent="WIyWlLk6GJQsqaUBKTNV-1" source="6bCr9Sbg1nDe6eWZvjVP-97" target="6bCr9Sbg1nDe6eWZvjVP-98">
          <mxGeometry relative="1" as="geometry">
            <mxPoint x="1300" y="160" as="targetPoint" />
          </mxGeometry>
        </mxCell>
        <mxCell id="6bCr9Sbg1nDe6eWZvjVP-97" value="itos" style="shape=process;whiteSpace=wrap;html=1;backgroundOutline=1;" vertex="1" parent="WIyWlLk6GJQsqaUBKTNV-1">
          <mxGeometry x="1240" y="80" width="120" height="40" as="geometry" />
        </mxCell>
        <mxCell id="6bCr9Sbg1nDe6eWZvjVP-98" value="mov eax, [esi]" style="rounded=0;whiteSpace=wrap;html=1;" vertex="1" parent="WIyWlLk6GJQsqaUBKTNV-1">
          <mxGeometry x="1240" y="160" width="120" height="40" as="geometry" />
        </mxCell>
        <mxCell id="6bCr9Sbg1nDe6eWZvjVP-99" value="" style="endArrow=none;html=1;rounded=0;" edge="1" parent="WIyWlLk6GJQsqaUBKTNV-1">
          <mxGeometry width="50" height="50" relative="1" as="geometry">
            <mxPoint x="1300" y="240" as="sourcePoint" />
            <mxPoint x="1300" y="200" as="targetPoint" />
          </mxGeometry>
        </mxCell>
        <mxCell id="6bCr9Sbg1nDe6eWZvjVP-100" value="eax &amp;lt; 0" style="rhombus;whiteSpace=wrap;html=1;" vertex="1" parent="WIyWlLk6GJQsqaUBKTNV-1">
          <mxGeometry x="1250" y="240" width="100" height="60" as="geometry" />
        </mxCell>
        <mxCell id="6bCr9Sbg1nDe6eWZvjVP-101" value="" style="endArrow=none;html=1;rounded=0;" edge="1" parent="WIyWlLk6GJQsqaUBKTNV-1">
          <mxGeometry width="50" height="50" relative="1" as="geometry">
            <mxPoint x="1399.74" y="300" as="sourcePoint" />
            <mxPoint x="1400" y="270" as="targetPoint" />
          </mxGeometry>
        </mxCell>
        <mxCell id="6bCr9Sbg1nDe6eWZvjVP-102" value="Yes" style="text;html=1;align=center;verticalAlign=middle;whiteSpace=wrap;rounded=0;" vertex="1" parent="WIyWlLk6GJQsqaUBKTNV-1">
          <mxGeometry x="1350" y="245" width="40" height="20" as="geometry" />
        </mxCell>
        <mxCell id="6bCr9Sbg1nDe6eWZvjVP-103" value="[esi] += &#39;-&#39;&lt;br&gt;esi++&lt;br&gt;neg eax" style="rounded=0;whiteSpace=wrap;html=1;" vertex="1" parent="WIyWlLk6GJQsqaUBKTNV-1">
          <mxGeometry x="1350" y="290" width="100" height="60" as="geometry" />
        </mxCell>
        <mxCell id="6bCr9Sbg1nDe6eWZvjVP-104" value="" style="endArrow=none;html=1;rounded=0;" edge="1" parent="WIyWlLk6GJQsqaUBKTNV-1">
          <mxGeometry width="50" height="50" relative="1" as="geometry">
            <mxPoint x="1400" y="380" as="sourcePoint" />
            <mxPoint x="1399.74" y="350" as="targetPoint" />
          </mxGeometry>
        </mxCell>
        <mxCell id="6bCr9Sbg1nDe6eWZvjVP-105" value="" style="endArrow=none;html=1;rounded=0;" edge="1" parent="WIyWlLk6GJQsqaUBKTNV-1">
          <mxGeometry width="50" height="50" relative="1" as="geometry">
            <mxPoint x="1200" y="270" as="sourcePoint" />
            <mxPoint x="1250" y="270" as="targetPoint" />
          </mxGeometry>
        </mxCell>
        <mxCell id="6bCr9Sbg1nDe6eWZvjVP-106" value="" style="endArrow=none;html=1;rounded=0;" edge="1" parent="WIyWlLk6GJQsqaUBKTNV-1">
          <mxGeometry width="50" height="50" relative="1" as="geometry">
            <mxPoint x="1200" y="380" as="sourcePoint" />
            <mxPoint x="1200" y="270" as="targetPoint" />
          </mxGeometry>
        </mxCell>
        <mxCell id="6bCr9Sbg1nDe6eWZvjVP-107" value="" style="endArrow=none;html=1;rounded=0;startArrow=none;startFill=0;endFill=0;" edge="1" parent="WIyWlLk6GJQsqaUBKTNV-1">
          <mxGeometry width="50" height="50" relative="1" as="geometry">
            <mxPoint x="1200" y="380" as="sourcePoint" />
            <mxPoint x="1300" y="380" as="targetPoint" />
          </mxGeometry>
        </mxCell>
        <mxCell id="6bCr9Sbg1nDe6eWZvjVP-108" value="No" style="text;html=1;align=center;verticalAlign=middle;whiteSpace=wrap;rounded=0;shadow=1;" vertex="1" parent="WIyWlLk6GJQsqaUBKTNV-1">
          <mxGeometry x="1214" y="250" width="30" height="10" as="geometry" />
        </mxCell>
        <mxCell id="6bCr9Sbg1nDe6eWZvjVP-109" value="" style="endArrow=none;html=1;rounded=0;exitX=1;exitY=0.5;exitDx=0;exitDy=0;" edge="1" parent="WIyWlLk6GJQsqaUBKTNV-1" source="6bCr9Sbg1nDe6eWZvjVP-100">
          <mxGeometry width="50" height="50" relative="1" as="geometry">
            <mxPoint x="1250" y="330" as="sourcePoint" />
            <mxPoint x="1400" y="270" as="targetPoint" />
          </mxGeometry>
        </mxCell>
        <mxCell id="6bCr9Sbg1nDe6eWZvjVP-110" value="" style="endArrow=none;html=1;rounded=0;" edge="1" parent="WIyWlLk6GJQsqaUBKTNV-1">
          <mxGeometry width="50" height="50" relative="1" as="geometry">
            <mxPoint x="1300" y="380" as="sourcePoint" />
            <mxPoint x="1400" y="380" as="targetPoint" />
          </mxGeometry>
        </mxCell>
        <mxCell id="6bCr9Sbg1nDe6eWZvjVP-111" value="" style="endArrow=none;html=1;rounded=0;" edge="1" parent="WIyWlLk6GJQsqaUBKTNV-1">
          <mxGeometry width="50" height="50" relative="1" as="geometry">
            <mxPoint x="1299.74" y="430" as="sourcePoint" />
            <mxPoint x="1299.74" y="380" as="targetPoint" />
          </mxGeometry>
        </mxCell>
        <mxCell id="6bCr9Sbg1nDe6eWZvjVP-112" value="edx = eax % 10&lt;br&gt;eax /= 10&amp;nbsp;&lt;br&gt;edx += &#39;0&#39;&lt;br&gt;[esi] += edx&lt;br&gt;esi++" style="rounded=0;whiteSpace=wrap;html=1;" vertex="1" parent="WIyWlLk6GJQsqaUBKTNV-1">
          <mxGeometry x="1240" y="430" width="120" height="80" as="geometry" />
        </mxCell>
        <mxCell id="6bCr9Sbg1nDe6eWZvjVP-114" value="eax == 0" style="rhombus;whiteSpace=wrap;html=1;" vertex="1" parent="WIyWlLk6GJQsqaUBKTNV-1">
          <mxGeometry x="1250" y="540" width="100" height="60" as="geometry" />
        </mxCell>
        <mxCell id="6bCr9Sbg1nDe6eWZvjVP-115" value="" style="endArrow=none;html=1;rounded=0;exitX=0.5;exitY=0;exitDx=0;exitDy=0;" edge="1" parent="WIyWlLk6GJQsqaUBKTNV-1" source="6bCr9Sbg1nDe6eWZvjVP-114">
          <mxGeometry width="50" height="50" relative="1" as="geometry">
            <mxPoint x="1250" y="530" as="sourcePoint" />
            <mxPoint x="1300" y="510" as="targetPoint" />
          </mxGeometry>
        </mxCell>
        <mxCell id="6bCr9Sbg1nDe6eWZvjVP-122" style="edgeStyle=orthogonalEdgeStyle;rounded=0;orthogonalLoop=1;jettySize=auto;html=1;endArrow=none;endFill=0;exitX=0;exitY=0.5;exitDx=0;exitDy=0;" edge="1" parent="WIyWlLk6GJQsqaUBKTNV-1" source="6bCr9Sbg1nDe6eWZvjVP-114">
          <mxGeometry relative="1" as="geometry">
            <mxPoint x="1160" y="410" as="targetPoint" />
            <mxPoint x="1249.997471264368" y="550.004482758621" as="sourcePoint" />
          </mxGeometry>
        </mxCell>
        <mxCell id="6bCr9Sbg1nDe6eWZvjVP-125" value="" style="endArrow=classic;html=1;rounded=0;endFill=1;" edge="1" parent="WIyWlLk6GJQsqaUBKTNV-1">
          <mxGeometry width="50" height="50" relative="1" as="geometry">
            <mxPoint x="1160" y="410" as="sourcePoint" />
            <mxPoint x="1299" y="410" as="targetPoint" />
          </mxGeometry>
        </mxCell>
        <mxCell id="6bCr9Sbg1nDe6eWZvjVP-126" value="No" style="text;html=1;align=center;verticalAlign=middle;whiteSpace=wrap;rounded=0;shadow=1;" vertex="1" parent="WIyWlLk6GJQsqaUBKTNV-1">
          <mxGeometry x="1220" y="550" width="30" height="10" as="geometry" />
        </mxCell>
        <mxCell id="6bCr9Sbg1nDe6eWZvjVP-127" value="Yes" style="text;html=1;align=center;verticalAlign=middle;whiteSpace=wrap;rounded=0;" vertex="1" parent="WIyWlLk6GJQsqaUBKTNV-1">
          <mxGeometry x="1300" y="600" width="40" height="20" as="geometry" />
        </mxCell>
        <mxCell id="6bCr9Sbg1nDe6eWZvjVP-130" value="" style="endArrow=none;html=1;rounded=0;endFill=0;exitX=0;exitY=0;exitDx=0;exitDy=0;" edge="1" parent="WIyWlLk6GJQsqaUBKTNV-1" source="6bCr9Sbg1nDe6eWZvjVP-127">
          <mxGeometry width="50" height="50" relative="1" as="geometry">
            <mxPoint x="1300" y="630" as="sourcePoint" />
            <mxPoint x="1300" y="650" as="targetPoint" />
          </mxGeometry>
        </mxCell>
        <mxCell id="6bCr9Sbg1nDe6eWZvjVP-135" value="reverse" style="rounded=0;whiteSpace=wrap;html=1;" vertex="1" parent="WIyWlLk6GJQsqaUBKTNV-1">
          <mxGeometry x="1241" y="650" width="120" height="60" as="geometry" />
        </mxCell>
        <mxCell id="6bCr9Sbg1nDe6eWZvjVP-140" value="" style="endArrow=none;html=1;rounded=0;endFill=0;" edge="1" parent="WIyWlLk6GJQsqaUBKTNV-1">
          <mxGeometry width="50" height="50" relative="1" as="geometry">
            <mxPoint x="1300" y="710" as="sourcePoint" />
            <mxPoint x="1300" y="760" as="targetPoint" />
          </mxGeometry>
        </mxCell>
        <mxCell id="6bCr9Sbg1nDe6eWZvjVP-141" value="ret" style="rounded=1;whiteSpace=wrap;html=1;arcSize=50;" vertex="1" parent="WIyWlLk6GJQsqaUBKTNV-1">
          <mxGeometry x="1240" y="760" width="120" height="60" as="geometry" />
        </mxCell>
        <mxCell id="6bCr9Sbg1nDe6eWZvjVP-142" style="edgeStyle=orthogonalEdgeStyle;rounded=0;orthogonalLoop=1;jettySize=auto;html=1;endArrow=none;endFill=0;" edge="1" parent="WIyWlLk6GJQsqaUBKTNV-1" source="6bCr9Sbg1nDe6eWZvjVP-143">
          <mxGeometry relative="1" as="geometry">
            <mxPoint x="1600" y="160" as="targetPoint" />
          </mxGeometry>
        </mxCell>
        <mxCell id="6bCr9Sbg1nDe6eWZvjVP-143" value="reverse" style="shape=process;whiteSpace=wrap;html=1;backgroundOutline=1;" vertex="1" parent="WIyWlLk6GJQsqaUBKTNV-1">
          <mxGeometry x="1540" y="80" width="120" height="40" as="geometry" />
        </mxCell>
        <mxCell id="6bCr9Sbg1nDe6eWZvjVP-183" style="edgeStyle=orthogonalEdgeStyle;rounded=0;orthogonalLoop=1;jettySize=auto;html=1;exitX=0.5;exitY=0;exitDx=0;exitDy=0;endArrow=none;endFill=0;" edge="1" parent="WIyWlLk6GJQsqaUBKTNV-1" source="6bCr9Sbg1nDe6eWZvjVP-157">
          <mxGeometry relative="1" as="geometry">
            <mxPoint x="1680" y="680" as="targetPoint" />
            <Array as="points">
              <mxPoint x="1600" y="680" />
            </Array>
          </mxGeometry>
        </mxCell>
        <mxCell id="6bCr9Sbg1nDe6eWZvjVP-157" value="ret" style="rounded=1;whiteSpace=wrap;html=1;arcSize=50;" vertex="1" parent="WIyWlLk6GJQsqaUBKTNV-1">
          <mxGeometry x="1540" y="700" width="120" height="60" as="geometry" />
        </mxCell>
        <mxCell id="6bCr9Sbg1nDe6eWZvjVP-159" value="" style="edgeStyle=orthogonalEdgeStyle;rounded=0;orthogonalLoop=1;jettySize=auto;html=1;endArrow=none;endFill=0;" edge="1" parent="WIyWlLk6GJQsqaUBKTNV-1" source="6bCr9Sbg1nDe6eWZvjVP-92" target="6bCr9Sbg1nDe6eWZvjVP-95">
          <mxGeometry relative="1" as="geometry">
            <mxPoint x="1020" y="470" as="targetPoint" />
            <mxPoint x="1020" y="320" as="sourcePoint" />
          </mxGeometry>
        </mxCell>
        <mxCell id="6bCr9Sbg1nDe6eWZvjVP-95" value="ret" style="rounded=1;whiteSpace=wrap;html=1;arcSize=50;" vertex="1" parent="WIyWlLk6GJQsqaUBKTNV-1">
          <mxGeometry x="960" y="440" width="120" height="60" as="geometry" />
        </mxCell>
        <mxCell id="6bCr9Sbg1nDe6eWZvjVP-158" value="eax" style="shape=document;whiteSpace=wrap;html=1;boundedLbl=1;" vertex="1" parent="WIyWlLk6GJQsqaUBKTNV-1">
          <mxGeometry x="960" y="350" width="120" height="60" as="geometry" />
        </mxCell>
        <mxCell id="6bCr9Sbg1nDe6eWZvjVP-161" value="ebx = eax&lt;br&gt;edx = eax + len - 1&lt;br&gt;al = [ebx]" style="rounded=0;whiteSpace=wrap;html=1;" vertex="1" parent="WIyWlLk6GJQsqaUBKTNV-1">
          <mxGeometry x="1540" y="160" width="120" height="60" as="geometry" />
        </mxCell>
        <mxCell id="6bCr9Sbg1nDe6eWZvjVP-162" value="al == &#39;-&#39;" style="rhombus;whiteSpace=wrap;html=1;" vertex="1" parent="WIyWlLk6GJQsqaUBKTNV-1">
          <mxGeometry x="1550" y="245" width="100" height="60" as="geometry" />
        </mxCell>
        <mxCell id="6bCr9Sbg1nDe6eWZvjVP-163" value="" style="endArrow=none;html=1;rounded=0;" edge="1" parent="WIyWlLk6GJQsqaUBKTNV-1">
          <mxGeometry width="50" height="50" relative="1" as="geometry">
            <mxPoint x="1699.74" y="305" as="sourcePoint" />
            <mxPoint x="1700" y="275" as="targetPoint" />
          </mxGeometry>
        </mxCell>
        <mxCell id="6bCr9Sbg1nDe6eWZvjVP-164" value="Yes" style="text;html=1;align=center;verticalAlign=middle;whiteSpace=wrap;rounded=0;" vertex="1" parent="WIyWlLk6GJQsqaUBKTNV-1">
          <mxGeometry x="1650" y="250" width="40" height="20" as="geometry" />
        </mxCell>
        <mxCell id="6bCr9Sbg1nDe6eWZvjVP-165" value="ebx += 1" style="rounded=0;whiteSpace=wrap;html=1;" vertex="1" parent="WIyWlLk6GJQsqaUBKTNV-1">
          <mxGeometry x="1650" y="295" width="100" height="60" as="geometry" />
        </mxCell>
        <mxCell id="6bCr9Sbg1nDe6eWZvjVP-166" value="" style="endArrow=none;html=1;rounded=0;" edge="1" parent="WIyWlLk6GJQsqaUBKTNV-1">
          <mxGeometry width="50" height="50" relative="1" as="geometry">
            <mxPoint x="1700" y="385" as="sourcePoint" />
            <mxPoint x="1699.74" y="355" as="targetPoint" />
          </mxGeometry>
        </mxCell>
        <mxCell id="6bCr9Sbg1nDe6eWZvjVP-167" value="" style="endArrow=none;html=1;rounded=0;" edge="1" parent="WIyWlLk6GJQsqaUBKTNV-1">
          <mxGeometry width="50" height="50" relative="1" as="geometry">
            <mxPoint x="1500" y="275" as="sourcePoint" />
            <mxPoint x="1550" y="275" as="targetPoint" />
          </mxGeometry>
        </mxCell>
        <mxCell id="6bCr9Sbg1nDe6eWZvjVP-168" value="" style="endArrow=none;html=1;rounded=0;" edge="1" parent="WIyWlLk6GJQsqaUBKTNV-1">
          <mxGeometry width="50" height="50" relative="1" as="geometry">
            <mxPoint x="1500" y="385" as="sourcePoint" />
            <mxPoint x="1500" y="275" as="targetPoint" />
          </mxGeometry>
        </mxCell>
        <mxCell id="6bCr9Sbg1nDe6eWZvjVP-169" value="" style="endArrow=none;html=1;rounded=0;startArrow=none;startFill=0;endFill=0;" edge="1" parent="WIyWlLk6GJQsqaUBKTNV-1">
          <mxGeometry width="50" height="50" relative="1" as="geometry">
            <mxPoint x="1500" y="385" as="sourcePoint" />
            <mxPoint x="1600" y="385" as="targetPoint" />
          </mxGeometry>
        </mxCell>
        <mxCell id="6bCr9Sbg1nDe6eWZvjVP-170" value="No" style="text;html=1;align=center;verticalAlign=middle;whiteSpace=wrap;rounded=0;shadow=1;" vertex="1" parent="WIyWlLk6GJQsqaUBKTNV-1">
          <mxGeometry x="1514" y="255" width="30" height="10" as="geometry" />
        </mxCell>
        <mxCell id="6bCr9Sbg1nDe6eWZvjVP-171" value="" style="endArrow=none;html=1;rounded=0;exitX=1;exitY=0.5;exitDx=0;exitDy=0;" edge="1" parent="WIyWlLk6GJQsqaUBKTNV-1" source="6bCr9Sbg1nDe6eWZvjVP-162">
          <mxGeometry width="50" height="50" relative="1" as="geometry">
            <mxPoint x="1550" y="335" as="sourcePoint" />
            <mxPoint x="1700" y="275" as="targetPoint" />
          </mxGeometry>
        </mxCell>
        <mxCell id="6bCr9Sbg1nDe6eWZvjVP-172" value="" style="endArrow=none;html=1;rounded=0;" edge="1" parent="WIyWlLk6GJQsqaUBKTNV-1">
          <mxGeometry width="50" height="50" relative="1" as="geometry">
            <mxPoint x="1600" y="385" as="sourcePoint" />
            <mxPoint x="1700" y="385" as="targetPoint" />
          </mxGeometry>
        </mxCell>
        <mxCell id="6bCr9Sbg1nDe6eWZvjVP-173" value="" style="endArrow=none;html=1;rounded=0;" edge="1" parent="WIyWlLk6GJQsqaUBKTNV-1">
          <mxGeometry width="50" height="50" relative="1" as="geometry">
            <mxPoint x="1599.74" y="435" as="sourcePoint" />
            <mxPoint x="1599.74" y="385" as="targetPoint" />
          </mxGeometry>
        </mxCell>
        <mxCell id="6bCr9Sbg1nDe6eWZvjVP-174" value="" style="endArrow=none;html=1;rounded=0;exitX=0.5;exitY=0;exitDx=0;exitDy=0;" edge="1" parent="WIyWlLk6GJQsqaUBKTNV-1" source="6bCr9Sbg1nDe6eWZvjVP-162">
          <mxGeometry width="50" height="50" relative="1" as="geometry">
            <mxPoint x="1550" y="270" as="sourcePoint" />
            <mxPoint x="1600" y="220" as="targetPoint" />
          </mxGeometry>
        </mxCell>
        <mxCell id="6bCr9Sbg1nDe6eWZvjVP-176" style="edgeStyle=orthogonalEdgeStyle;rounded=0;orthogonalLoop=1;jettySize=auto;html=1;endArrow=none;endFill=0;" edge="1" parent="WIyWlLk6GJQsqaUBKTNV-1" source="6bCr9Sbg1nDe6eWZvjVP-175">
          <mxGeometry relative="1" as="geometry">
            <mxPoint x="1600" y="530" as="targetPoint" />
          </mxGeometry>
        </mxCell>
        <mxCell id="6bCr9Sbg1nDe6eWZvjVP-182" style="edgeStyle=orthogonalEdgeStyle;rounded=0;orthogonalLoop=1;jettySize=auto;html=1;endArrow=none;endFill=0;" edge="1" parent="WIyWlLk6GJQsqaUBKTNV-1" source="6bCr9Sbg1nDe6eWZvjVP-175">
          <mxGeometry relative="1" as="geometry">
            <mxPoint x="1680" y="680" as="targetPoint" />
          </mxGeometry>
        </mxCell>
        <mxCell id="6bCr9Sbg1nDe6eWZvjVP-175" value="ebx &amp;gt;= edx" style="rhombus;whiteSpace=wrap;html=1;" vertex="1" parent="WIyWlLk6GJQsqaUBKTNV-1">
          <mxGeometry x="1550" y="430" width="100" height="60" as="geometry" />
        </mxCell>
        <mxCell id="6bCr9Sbg1nDe6eWZvjVP-177" value="No" style="text;html=1;align=center;verticalAlign=middle;whiteSpace=wrap;rounded=0;shadow=1;" vertex="1" parent="WIyWlLk6GJQsqaUBKTNV-1">
          <mxGeometry x="1600" y="490" width="30" height="10" as="geometry" />
        </mxCell>
        <mxCell id="6bCr9Sbg1nDe6eWZvjVP-179" style="edgeStyle=orthogonalEdgeStyle;rounded=0;orthogonalLoop=1;jettySize=auto;html=1;endArrow=none;endFill=0;" edge="1" parent="WIyWlLk6GJQsqaUBKTNV-1" source="6bCr9Sbg1nDe6eWZvjVP-178">
          <mxGeometry relative="1" as="geometry">
            <mxPoint x="1520" y="420" as="targetPoint" />
            <Array as="points">
              <mxPoint x="1600" y="655" />
            </Array>
          </mxGeometry>
        </mxCell>
        <mxCell id="6bCr9Sbg1nDe6eWZvjVP-178" value="al = [ebx]&lt;br&gt;cl = [edx]&lt;br&gt;[ebx] = cl&lt;br&gt;[edx] = al&lt;br&gt;ebx += 1&lt;br&gt;edx -= 1" style="rounded=0;whiteSpace=wrap;html=1;" vertex="1" parent="WIyWlLk6GJQsqaUBKTNV-1">
          <mxGeometry x="1550" y="530" width="100" height="100" as="geometry" />
        </mxCell>
        <mxCell id="6bCr9Sbg1nDe6eWZvjVP-180" value="" style="endArrow=classic;html=1;rounded=0;endFill=1;" edge="1" parent="WIyWlLk6GJQsqaUBKTNV-1">
          <mxGeometry width="50" height="50" relative="1" as="geometry">
            <mxPoint x="1520" y="420" as="sourcePoint" />
            <mxPoint x="1600" y="420" as="targetPoint" />
          </mxGeometry>
        </mxCell>
        <mxCell id="6bCr9Sbg1nDe6eWZvjVP-184" value="Yes" style="text;html=1;align=center;verticalAlign=middle;whiteSpace=wrap;rounded=0;" vertex="1" parent="WIyWlLk6GJQsqaUBKTNV-1">
          <mxGeometry x="1650" y="440" width="40" height="20" as="geometry" />
        </mxCell>
        <mxCell id="6bCr9Sbg1nDe6eWZvjVP-186" style="edgeStyle=orthogonalEdgeStyle;rounded=0;orthogonalLoop=1;jettySize=auto;html=1;endArrow=none;endFill=0;" edge="1" parent="WIyWlLk6GJQsqaUBKTNV-1" source="6bCr9Sbg1nDe6eWZvjVP-185">
          <mxGeometry relative="1" as="geometry">
            <mxPoint x="2020" y="160" as="targetPoint" />
          </mxGeometry>
        </mxCell>
        <mxCell id="6bCr9Sbg1nDe6eWZvjVP-185" value="getack" style="rounded=1;whiteSpace=wrap;html=1;arcSize=50;" vertex="1" parent="WIyWlLk6GJQsqaUBKTNV-1">
          <mxGeometry x="1960" y="80" width="120" height="40" as="geometry" />
        </mxCell>
        <mxCell id="6bCr9Sbg1nDe6eWZvjVP-187" value="geti(a)&lt;br&gt;geti(c)&lt;br&gt;geti(k)" style="rounded=0;whiteSpace=wrap;html=1;" vertex="1" parent="WIyWlLk6GJQsqaUBKTNV-1">
          <mxGeometry x="1960" y="160" width="120" height="80" as="geometry" />
        </mxCell>
        <mxCell id="6bCr9Sbg1nDe6eWZvjVP-189" style="edgeStyle=orthogonalEdgeStyle;rounded=0;orthogonalLoop=1;jettySize=auto;html=1;entryX=0.5;entryY=1;entryDx=0;entryDy=0;endArrow=none;endFill=0;" edge="1" parent="WIyWlLk6GJQsqaUBKTNV-1" source="6bCr9Sbg1nDe6eWZvjVP-188" target="6bCr9Sbg1nDe6eWZvjVP-187">
          <mxGeometry relative="1" as="geometry" />
        </mxCell>
        <mxCell id="6bCr9Sbg1nDe6eWZvjVP-188" value="calc" style="rounded=1;whiteSpace=wrap;html=1;arcSize=50;" vertex="1" parent="WIyWlLk6GJQsqaUBKTNV-1">
          <mxGeometry x="1960" y="280" width="120" height="40" as="geometry" />
        </mxCell>
        <mxCell id="6bCr9Sbg1nDe6eWZvjVP-191" style="edgeStyle=orthogonalEdgeStyle;rounded=0;orthogonalLoop=1;jettySize=auto;html=1;endArrow=none;endFill=0;" edge="1" parent="WIyWlLk6GJQsqaUBKTNV-1" source="6bCr9Sbg1nDe6eWZvjVP-190">
          <mxGeometry relative="1" as="geometry">
            <mxPoint x="2220" y="160" as="targetPoint" />
          </mxGeometry>
        </mxCell>
        <mxCell id="6bCr9Sbg1nDe6eWZvjVP-190" value="calc" style="rounded=1;whiteSpace=wrap;html=1;arcSize=50;" vertex="1" parent="WIyWlLk6GJQsqaUBKTNV-1">
          <mxGeometry x="2160" y="80" width="120" height="40" as="geometry" />
        </mxCell>
        <mxCell id="6bCr9Sbg1nDe6eWZvjVP-193" style="edgeStyle=orthogonalEdgeStyle;rounded=0;orthogonalLoop=1;jettySize=auto;html=1;endArrow=none;endFill=0;" edge="1" parent="WIyWlLk6GJQsqaUBKTNV-1" source="6bCr9Sbg1nDe6eWZvjVP-192">
          <mxGeometry relative="1" as="geometry">
            <mxPoint x="2220" y="600" as="targetPoint" />
          </mxGeometry>
        </mxCell>
        <mxCell id="6bCr9Sbg1nDe6eWZvjVP-192" value="eax = a&lt;br&gt;eax -= c&lt;br&gt;eax *= eax&lt;br&gt;push eax&lt;br&gt;&lt;br&gt;eax = a&lt;br&gt;eax *= 2&lt;br&gt;push eax&lt;br&gt;&lt;br&gt;ebx = b&lt;br&gt;b *= b&lt;br&gt;b *= b&lt;br&gt;push ebx&lt;br&gt;&lt;br&gt;ecx = k&lt;br&gt;ecx *= ecx&lt;br&gt;ecx += 1&lt;br&gt;&lt;br&gt;pop eax&lt;br&gt;eax /= ecx&lt;br&gt;&lt;br&gt;pop ebx&lt;br&gt;eax *= ebx&lt;br&gt;&lt;br&gt;pop ebx&lt;br&gt;eax += ebx&lt;br&gt;&lt;div&gt;&lt;br/&gt;&lt;/div&gt;" style="rounded=0;whiteSpace=wrap;html=1;" vertex="1" parent="WIyWlLk6GJQsqaUBKTNV-1">
          <mxGeometry x="2160" y="160" width="120" height="400" as="geometry" />
        </mxCell>
        <mxCell id="6bCr9Sbg1nDe6eWZvjVP-194" value="outandexit" style="rounded=1;whiteSpace=wrap;html=1;arcSize=50;" vertex="1" parent="WIyWlLk6GJQsqaUBKTNV-1">
          <mxGeometry x="2160" y="600" width="120" height="40" as="geometry" />
        </mxCell>
        <mxCell id="6bCr9Sbg1nDe6eWZvjVP-196" style="edgeStyle=orthogonalEdgeStyle;rounded=0;orthogonalLoop=1;jettySize=auto;html=1;endArrow=none;endFill=0;" edge="1" parent="WIyWlLk6GJQsqaUBKTNV-1" source="6bCr9Sbg1nDe6eWZvjVP-195">
          <mxGeometry relative="1" as="geometry">
            <mxPoint x="2430" y="160" as="targetPoint" />
          </mxGeometry>
        </mxCell>
        <mxCell id="6bCr9Sbg1nDe6eWZvjVP-195" value="outandexit" style="rounded=1;whiteSpace=wrap;html=1;arcSize=50;" vertex="1" parent="WIyWlLk6GJQsqaUBKTNV-1">
          <mxGeometry x="2370" y="80" width="120" height="40" as="geometry" />
        </mxCell>
        <mxCell id="6bCr9Sbg1nDe6eWZvjVP-198" style="edgeStyle=orthogonalEdgeStyle;rounded=0;orthogonalLoop=1;jettySize=auto;html=1;endArrow=none;endFill=0;" edge="1" parent="WIyWlLk6GJQsqaUBKTNV-1" source="6bCr9Sbg1nDe6eWZvjVP-197">
          <mxGeometry relative="1" as="geometry">
            <mxPoint x="2430" y="260" as="targetPoint" />
          </mxGeometry>
        </mxCell>
        <mxCell id="6bCr9Sbg1nDe6eWZvjVP-197" value="outi(eax)" style="rounded=0;whiteSpace=wrap;html=1;" vertex="1" parent="WIyWlLk6GJQsqaUBKTNV-1">
          <mxGeometry x="2370" y="160" width="120" height="60" as="geometry" />
        </mxCell>
        <mxCell id="6bCr9Sbg1nDe6eWZvjVP-199" value="Конец" style="rounded=1;whiteSpace=wrap;html=1;arcSize=50;" vertex="1" parent="WIyWlLk6GJQsqaUBKTNV-1">
          <mxGeometry x="2370" y="260" width="120" height="40" as="geometry" />
        </mxCell>
        <mxCell id="6bCr9Sbg1nDe6eWZvjVP-202" style="edgeStyle=orthogonalEdgeStyle;rounded=0;orthogonalLoop=1;jettySize=auto;html=1;entryX=0.5;entryY=0;entryDx=0;entryDy=0;endArrow=none;endFill=0;" edge="1" parent="WIyWlLk6GJQsqaUBKTNV-1" source="6bCr9Sbg1nDe6eWZvjVP-200" target="6bCr9Sbg1nDe6eWZvjVP-201">
          <mxGeometry relative="1" as="geometry" />
        </mxCell>
        <mxCell id="6bCr9Sbg1nDe6eWZvjVP-200" value="Начало" style="rounded=1;whiteSpace=wrap;html=1;arcSize=50;" vertex="1" parent="WIyWlLk6GJQsqaUBKTNV-1">
          <mxGeometry x="1790" y="80" width="120" height="40" as="geometry" />
        </mxCell>
        <mxCell id="6bCr9Sbg1nDe6eWZvjVP-201" value="getack" style="rounded=1;whiteSpace=wrap;html=1;arcSize=50;" vertex="1" parent="WIyWlLk6GJQsqaUBKTNV-1">
          <mxGeometry x="1790" y="160" width="120" height="40" as="geometry" />
        </mxCell>
      </root>
    </mxGraphModel>
  </diagram>
</mxfile>
